<svg width="33" height="31" viewBox="0 0 33 31" fill="none" xmlns="http://www.w3.org/2000/svg">
<path d="M14.9232 5.852V19.138C14.9232 19.918 14.7845 20.6287 14.5072 21.27C14.2472 21.9113 13.8658 22.4573 13.3632 22.908C12.8778 23.3587 12.2885 23.7053 11.5952 23.948C10.9018 24.1907 10.1305 24.312 9.28116 24.312C7.68649 24.312 6.41249 23.9133 5.45916 23.116C4.52316 22.3187 3.91649 21.218 3.63916 19.814L6.39516 19.242C6.55116 19.9873 6.84582 20.6113 7.27916 21.114C7.71249 21.6167 8.38849 21.868 9.30716 21.868C10.1565 21.868 10.8152 21.6167 11.2832 21.114C11.7685 20.594 12.0112 19.8053 12.0112 18.748V8.296H5.69316V5.852H14.9232ZM25.105 24.26C24.273 24.26 23.6837 24.0867 23.337 23.74C23.0077 23.3933 22.843 22.9687 22.843 22.466V21.79C22.843 21.2873 23.0077 20.8627 23.337 20.516C23.6837 20.1693 24.273 19.996 25.105 19.996C25.937 19.996 26.5177 20.1693 26.847 20.516C27.1937 20.8627 27.367 21.2873 27.367 21.79V22.466C27.367 22.9687 27.1937 23.3933 26.847 23.74C26.5177 24.0867 25.937 24.26 25.105 24.26Z" fill="#1E1E1E"/>
</svg>
