<svg width="25" height="20" viewBox="0 0 25 20" fill="none" xmlns="http://www.w3.org/2000/svg">
<path d="M11.9232 0.852V14.138C11.9232 14.918 11.7845 15.6287 11.5072 16.27C11.2472 16.9113 10.8658 17.4573 10.3632 17.908C9.87782 18.3587 9.28849 18.7053 8.59516 18.948C7.90182 19.1907 7.13049 19.312 6.28116 19.312C4.68649 19.312 3.41249 18.9133 2.45916 18.116C1.52316 17.3187 0.916489 16.218 0.639156 14.814L3.39516 14.242C3.55116 14.9873 3.84582 15.6113 4.27916 16.114C4.71249 16.6167 5.38849 16.868 6.30716 16.868C7.15649 16.868 7.81516 16.6167 8.28316 16.114C8.76849 15.594 9.01116 14.8053 9.01116 13.748V3.296H2.69316V0.852H11.9232ZM22.105 19.26C21.273 19.26 20.6837 19.0867 20.337 18.74C20.0077 18.3933 19.843 17.9687 19.843 17.466V16.79C19.843 16.2873 20.0077 15.8627 20.337 15.516C20.6837 15.1693 21.273 14.996 22.105 14.996C22.937 14.996 23.5177 15.1693 23.847 15.516C24.1937 15.8627 24.367 16.2873 24.367 16.79V17.466C24.367 17.9687 24.1937 18.3933 23.847 18.74C23.5177 19.0867 22.937 19.26 22.105 19.26Z" fill="#1E1E1E"/>
</svg>
