<?xml version="1.0" encoding="UTF-8"?>
<svg width="18px" height="20px" viewBox="0 0 18 20" version="1.1" xmlns="http://www.w3.org/2000/svg" xmlns:xlink="http://www.w3.org/1999/xlink">
    <!-- Generator: Sketch 51.2 (57519) - http://www.bohemiancoding.com/sketch -->
    <title>Stroke 67</title>
    <desc>Created with Sketch.</desc>
    <defs></defs>
    <g id="Page-1" stroke="none" stroke-width="1" fill="none" fill-rule="evenodd">
        <g id="CV_Jovana-1" transform="translate(-34.000000, -720.000000)" stroke="#000000">
            <g id="Group-90" transform="translate(0.000000, -0.110000)">
                <path d="M49.6221,721.0947 L41.9691,723.4367 C41.0411,723.7007 40.2891,724.6687 40.2891,725.5957 L40.2891,733.5567 L40.2891,733.6687 C40.2891,733.6687 39.7351,733.2947 38.5001,733.4707 C36.6861,733.7277 35.2151,735.1197 35.2151,736.5797 C35.2151,738.0397 36.6861,738.9337 38.5001,738.6767 C40.3151,738.4207 41.6451,737.0717 41.6451,735.6107 L41.6451,728.7177 C41.6451,728.0707 42.4241,727.7937 42.4241,727.7937 L49.1911,725.6717 C49.1911,725.6717 49.9391,725.4207 49.9391,726.1147 L49.9391,731.6457 L49.9391,731.6497 C49.9391,731.6497 49.2501,731.2517 48.0161,731.4027 C46.2011,731.6227 44.7301,732.9867 44.7301,734.4457 C44.7301,735.9077 46.2011,736.8317 48.0161,736.6117 C49.8301,736.3917 51.3011,735.0297 51.3011,733.5687 L51.3011,722.2957 C51.3011,721.3677 50.5491,720.8307 49.6221,721.0947 Z" id="Stroke-67"></path>
            </g>
        </g>
    </g>
</svg>