<?xml version="1.0" encoding="UTF-8"?>
<svg width="20px" height="16px" viewBox="0 0 20 16" version="1.1" xmlns="http://www.w3.org/2000/svg" xmlns:xlink="http://www.w3.org/1999/xlink">
    <!-- Generator: Sketch 51.2 (57519) - http://www.bohemiancoding.com/sketch -->
    <title>Stroke 69</title>
    <desc>Created with Sketch.</desc>
    <defs></defs>
    <g id="Page-1" stroke="none" stroke-width="1" fill="none" fill-rule="evenodd">
        <g id="CV_Jovana-1" transform="translate(-35.000000, -690.000000)" stroke="#000000">
            <g id="Group-90" transform="translate(0.000000, -0.110000)">
                <path d="M39.2129,695.8555 L37.5939,695.8555 C37.3709,695.8555 37.1899,695.6735 37.1899,695.4515 L37.1899,694.6415 C37.1899,694.4185 37.3709,694.2365 37.5939,694.2365 L39.2129,694.2365 C39.4369,694.2365 39.6169,694.4185 39.6169,694.6415 L39.6169,695.4515 C39.6169,695.6735 39.4369,695.8555 39.2129,695.8555 Z M44.8789,700.7105 C43.7619,700.7105 42.8559,699.8065 42.8559,698.6885 C42.8559,697.5705 43.7619,696.6655 44.8789,696.6655 C45.9959,696.6655 46.9019,697.5705 46.9019,698.6885 C46.9019,699.8065 45.9959,700.7105 44.8789,700.7105 Z M44.8789,703.1395 C42.4199,703.1395 40.4279,701.1465 40.4279,698.6885 C40.4279,696.2295 42.4199,694.2365 44.8789,694.2365 C47.3379,694.2365 49.3299,696.2295 49.3299,698.6885 C49.3299,701.1465 47.3379,703.1395 44.8789,703.1395 Z M52.5669,704.7575 L37.1899,704.7575 C36.2949,704.7575 35.5699,704.0335 35.5699,703.1395 L35.5699,694.2365 C35.5699,693.3415 36.2949,692.6185 37.1899,692.6185 L37.5939,692.6185 C37.5939,692.1705 37.9569,691.8085 38.4039,691.8085 L39.2129,691.8085 C39.6599,691.8085 40.0219,692.1705 40.0219,692.6185 L40.8319,692.6185 C40.8319,692.6185 41.2869,692.5675 41.6409,692.2125 L42.4509,691.4045 C42.4509,691.4045 42.7669,690.9995 43.2599,690.9995 L46.4969,690.9995 C47.0289,690.9995 47.3069,691.4045 47.3069,691.4045 L48.1149,692.2125 C48.4709,692.5675 48.9259,692.6185 48.9259,692.6185 L52.5669,692.6185 C53.4629,692.6185 54.1869,693.3415 54.1869,694.2365 L54.1869,703.1395 C54.1869,704.0335 53.4629,704.7575 52.5669,704.7575 Z" id="Stroke-69"></path>
            </g>
        </g>
    </g>
</svg>