<?xml version="1.0" encoding="UTF-8"?>
<svg width="21px" height="21px" viewBox="0 0 21 21" version="1.1" xmlns="http://www.w3.org/2000/svg" xmlns:xlink="http://www.w3.org/1999/xlink">
    <!-- Generator: Sketch 51.2 (57519) - http://www.bohemiancoding.com/sketch -->
    <title>Stroke 71</title>
    <desc>Created with Sketch.</desc>
    <defs></defs>
    <g id="Page-1" stroke="none" stroke-width="1" fill="none" fill-rule="evenodd">
        <g id="CV_Jovana-1" transform="translate(-34.000000, -753.000000)" stroke="#000000">
            <g id="Group-90" transform="translate(0.000000, -0.110000)">
                <path d="M37.9189,764.2764 L37.4589,764.2764 C37.2049,764.2764 36.9989,764.0704 36.9989,763.8174 C36.9989,763.5624 37.2049,763.3564 37.4589,763.3564 L37.9189,763.3564 C38.1739,763.3564 38.3789,763.5624 38.3789,763.8174 C38.3789,764.0704 38.1739,764.2764 37.9189,764.2764 Z M44.8219,770.2594 C45.0769,770.2594 45.2829,770.4654 45.2829,770.7204 L45.2829,771.1804 C45.2829,771.4344 45.0769,771.6404 44.8219,771.6404 C44.5679,771.6404 44.3619,771.4344 44.3619,771.1804 L44.3619,770.7204 C44.3619,770.4654 44.5679,770.2594 44.8219,770.2594 Z M44.8219,757.3744 C44.5679,757.3744 44.3619,757.1684 44.3619,756.9134 L44.3619,756.4534 C44.3619,756.1984 44.5679,755.9934 44.8219,755.9934 C45.0769,755.9934 45.2829,756.1984 45.2829,756.4534 L45.2829,756.9134 C45.2829,757.1684 45.0769,757.3744 44.8219,757.3744 Z M44.8219,763.3564 C45.0769,763.3564 45.2829,763.5624 45.2829,763.8174 C45.2829,764.0704 45.0769,764.2764 44.8219,764.2764 C44.5679,764.2764 44.3619,764.0704 44.3619,763.8174 C44.3619,763.5624 44.5679,763.3564 44.8219,763.3564 Z M49.4139,768.0514 C49.3999,768.1384 49.3609,768.2204 49.2949,768.2884 C49.1529,768.4294 48.9449,768.4524 48.7749,768.3684 L48.8019,768.3944 L48.8059,768.3984 C48.7309,768.3684 48.6649,768.3384 48.5919,768.3084 C46.2039,767.3134 44.8129,766.5344 44.0509,766.0364 C43.4459,765.6414 43.2339,765.4224 43.2249,765.4144 C43.2049,765.3944 42.0799,764.3034 40.2399,759.8344 L40.2719,759.8644 C40.2679,759.8554 40.2659,759.8454 40.2619,759.8374 C40.2209,759.7384 40.2159,759.6314 40.2459,759.5314 C40.2659,759.4644 40.2969,759.3984 40.3509,759.3444 C40.4879,759.2064 40.6899,759.1824 40.8569,759.2604 C40.8609,759.2624 40.8659,759.2624 40.8699,759.2654 L40.8589,759.2544 L40.8399,759.2344 L40.8409,759.2354 L40.8399,759.2344 C45.3099,761.0744 46.3999,762.1984 46.4199,762.2194 C46.4399,762.2394 47.5649,763.3294 49.4039,767.7994 L49.4039,767.7984 L49.4039,767.7994 L49.3849,767.7784 L49.3729,767.7694 C49.3849,767.7904 49.3889,767.8124 49.3969,767.8364 C49.4179,767.9064 49.4279,767.9804 49.4139,768.0514 Z M52.1859,764.2764 L51.7269,764.2764 C51.4719,764.2764 51.2659,764.0704 51.2659,763.8174 C51.2659,763.5624 51.4719,763.3564 51.7269,763.3564 L52.1859,763.3564 C52.4399,763.3564 52.6469,763.5624 52.6469,763.8174 C52.6469,764.0704 52.4399,764.2764 52.1859,764.2764 Z M44.8219,773.4814 C39.4839,773.4814 35.1579,769.1544 35.1579,763.8174 C35.1579,758.4784 39.4839,754.1524 44.8219,754.1524 C50.1599,754.1524 54.4869,758.4784 54.4869,763.8174 C54.4869,769.1544 50.1599,773.4814 44.8219,773.4814 Z" id="Stroke-71"></path>
            </g>
        </g>
    </g>
</svg>